<svg width="364" height="234" viewBox="0 0 364 234" fill="none" xmlns="http://www.w3.org/2000/svg">
<g filter="url(#filter0_b_1804_189)">
<rect x="2" y="2" width="360" height="230" rx="15.1928" fill="url(#paint0_linear_1804_189)"/>
<rect x="1.36697" y="1.36697" width="361.266" height="231.266" rx="15.8259" stroke="url(#paint1_radial_1804_189)" stroke-width="1.26607"/>
<rect x="1.36697" y="1.36697" width="361.266" height="231.266" rx="15.8259" stroke="url(#paint2_linear_1804_189)" stroke-opacity="0.4" stroke-width="1.26607"/>
<rect x="1.36697" y="1.36697" width="361.266" height="231.266" rx="15.8259" stroke="url(#paint3_linear_1804_189)" stroke-width="1.26607"/>
</g>
<mask id="mask0_1804_189" style="mask-type:alpha" maskUnits="userSpaceOnUse" x="2" y="2" width="360" height="230">
<rect x="2" y="2" width="360" height="230" rx="15.4011" fill="#16084C"/>
</mask>
<g mask="url(#mask0_1804_189)">
<g filter="url(#filter1_f_1804_189)">
<path d="M453.518 -133.506C475.881 -87.3533 416.166 -11.492 320.142 35.9346C224.118 83.3613 128.147 84.3937 105.784 38.2406C83.4215 -7.91245 143.136 -83.7738 239.16 -131.2C335.184 -178.627 431.156 -179.659 453.518 -133.506Z" fill="#436D99"/>
</g>
<g filter="url(#filter2_f_1804_189)">
<path d="M401.134 -167.756C423.497 -121.603 363.783 -45.742 267.758 1.68464C171.734 49.1113 75.7629 50.1437 53.4003 3.99062C31.0377 -42.1624 90.7521 -118.024 186.776 -165.45C282.8 -212.877 378.772 -213.909 401.134 -167.756Z" fill="#E3F22D"/>
</g>
</g>
<path fill-rule="evenodd" clip-rule="evenodd" d="M23.3845 39.2647L23.3807 39.2699L23.3771 39.2751C23.1722 39.5652 22.7132 39.6504 22.3542 39.3969C22.0669 39.194 21.9805 38.7418 22.2252 38.3844C22.5903 37.9191 22.8554 37.3751 23.0295 36.8432C23.2108 36.2896 23.2951 35.6604 23.2918 35.0434C23.2886 34.4263 23.1976 33.7981 23.0104 33.2464C22.8306 32.7164 22.5597 32.1752 22.1897 31.7138C21.9412 31.3591 22.0228 30.906 22.3079 30.7C22.6642 30.4427 23.124 30.5231 23.332 30.811L23.3357 30.8161L23.3396 30.8212C23.8001 31.4285 24.1778 32.1032 24.4035 32.7651C24.6411 33.5438 24.7925 34.297 24.7964 35.0353C24.8005 35.8123 24.7263 36.5477 24.4412 37.2716C24.1307 38.06 23.83 38.6642 23.3845 39.2647ZM26.7142 40.7068L26.7232 40.6941L26.7314 40.6808C27.7521 39.0455 28.3408 37.0722 28.3299 35.0165C28.3189 32.9613 27.7095 30.9949 26.672 29.3708C26.4471 29.0142 26.5481 28.5926 26.9271 28.3188C27.1817 28.135 27.6595 28.2001 27.943 28.58C29.1145 30.4386 29.8221 32.6854 29.8344 35.0085C29.8472 37.4109 29.1641 39.5848 28.0115 41.4569C27.7449 41.8239 27.3367 41.9268 26.9847 41.7188C26.603 41.4391 26.5333 40.9629 26.7142 40.7068ZM32.6892 26.1371L32.6992 26.1569L32.7109 26.1759C34.2982 28.7638 35.1803 31.7489 35.1975 34.98C35.2147 38.2095 34.3652 41.2025 32.8069 43.8064C32.568 44.1905 32.1647 44.2988 31.7558 44.1085C31.3836 43.866 31.2836 43.464 31.478 43.0581C32.8033 40.7045 33.6274 37.931 33.6117 34.9884C33.5961 32.0589 32.8301 29.2899 31.3894 26.9361C31.1944 26.5342 31.291 26.1339 31.6587 25.8886C32.1024 25.6767 32.5346 25.832 32.6892 26.1371ZM37.3892 23.6742L37.396 23.6878L37.4037 23.701C39.3272 27.0259 40.4573 30.8274 40.4793 34.9518C40.5012 39.0721 39.4139 42.8817 37.5295 46.2245C37.2901 46.6042 36.8887 46.7106 36.4817 46.5212C36.1107 46.2794 36.0102 45.8792 36.2022 45.4746C38.0176 42.3762 38.9951 38.7866 38.9748 34.9598C38.9543 31.1232 37.8525 27.5475 36.0925 24.4797C35.872 24.0319 36.0274 23.5933 36.3352 23.4373C36.787 23.2084 37.2319 23.3638 37.3892 23.6742Z" fill="white"/>
<g clip-path="url(#clip0_1804_189)">
<path d="M297.006 22H341.994V48H297.006V22Z" fill="black" fill-opacity="0.05"/>
<path d="M306.275 29.9645C306.708 29.788 307.17 29.6939 307.649 29.6939C309.747 29.6939 311.498 31.5155 311.898 33.9374L314.871 33.196C314.19 29.0819 311.215 25.9846 307.649 25.9846C306.831 25.9846 306.048 26.147 305.313 26.4483L306.275 29.9645Z" fill="#55544E"/>
<path d="M302.767 41.7465L304.778 38.9669C303.881 37.9949 303.315 36.5757 303.315 34.9941C303.315 33.4148 303.881 31.9956 304.778 31.026L302.767 28.244C301.243 29.8962 300.281 32.3087 300.281 34.9941C300.281 37.6819 301.243 40.0943 302.767 41.7465" fill="url(#paint4_linear_1804_189)"/>
<path d="M311.898 36.058C311.496 38.4775 309.747 40.2968 307.651 40.2968C307.17 40.2968 306.706 40.2026 306.275 40.0238L305.313 43.5447C306.048 43.8436 306.833 44.006 307.651 44.006C311.213 44.006 314.186 40.9134 314.871 36.8041L311.898 36.058Z" fill="#655957"/>
<path d="M317.471 39.0823C317.373 38.8893 317.242 38.5809 317.161 38.3526C316.689 37.0158 316.668 35.6319 317.065 34.3045C317.502 32.8476 318.337 31.7344 319.416 31.1648C320.773 30.4517 322.272 30.5905 323.573 31.5343C324.398 32.1133 324.983 33.0077 325.428 34.2739C325.484 34.4363 325.534 34.6081 325.584 34.7564L317.471 39.0823ZM320.18 33.3136C319.216 33.8197 318.72 34.9258 318.824 36.2203L322.903 34.0715C322.201 33.0642 321.289 32.7299 320.18 33.3136V33.3136ZM323.411 37.9878C323.409 37.9878 323.409 37.9902 323.409 37.9902L323.325 37.9196C323.08 38.4021 322.701 38.7951 322.222 39.0493C321.31 39.5341 320.465 39.4094 319.857 38.7575L319.801 38.861C319.801 38.861 319.801 38.8587 319.799 38.8587L318.764 40.7533C319.022 40.9722 319.297 41.1558 319.586 41.304C320.729 41.8854 321.899 41.8571 323.051 41.2452C323.885 40.8027 324.539 40.1296 324.985 39.2752L323.411 37.9878ZM328.418 28.3782V38.9081L329.758 39.5718L328.997 41.7418L327.52 40.9887C327.189 40.8121 326.962 40.5438 326.792 40.2402C326.629 39.9319 326.507 39.5059 326.507 38.9363V28.3782H328.418ZM331.886 36.2274C331.886 35.3306 332.211 34.5257 332.723 33.9797L331.349 32.1062C330.418 33.1136 329.831 34.5846 329.831 36.2227C329.829 37.8631 330.416 39.3364 331.345 40.3438L332.717 38.4703C332.207 37.9219 331.886 37.1217 331.886 36.2274V36.2274ZM334.326 39.2141C334.056 39.2141 333.795 39.1576 333.552 39.0587L332.896 41.4429C333.344 41.6265 333.824 41.7277 334.324 41.7277C336.498 41.73 338.313 39.8425 338.735 37.3359L336.718 36.8322C336.489 38.195 335.506 39.2164 334.326 39.2141V39.2141ZM334.332 30.727C333.833 30.727 333.354 30.8259 332.906 31.0071L333.556 33.3937C333.801 33.2948 334.06 33.2407 334.33 33.2407C335.511 33.243 336.497 34.2692 336.72 35.6343L338.736 35.1353C338.323 32.624 336.508 30.7294 334.332 30.727V30.727Z" fill="white"/>
</g>
<g filter="url(#filter3_di_1804_189)">
<path d="M23.1506 107.932V105.026L30.4375 93.5455H32.9432V97.5682H31.4602L26.8665 104.838V104.974H37.2216V107.932H23.1506ZM31.5284 111V107.045L31.5966 105.759V93.5455H35.0568V111H31.5284ZM40.6404 111V108.341L46.8535 102.588C47.3819 102.077 47.8251 101.616 48.183 101.207C48.5466 100.798 48.8222 100.398 49.0097 100.006C49.1972 99.608 49.291 99.179 49.291 98.7188C49.291 98.2074 49.1745 97.767 48.9415 97.3977C48.7086 97.0227 48.3904 96.7358 47.987 96.5369C47.5836 96.3324 47.1262 96.2301 46.6148 96.2301C46.0807 96.2301 45.6148 96.3381 45.2171 96.554C44.8194 96.7699 44.5126 97.0795 44.2966 97.483C44.0807 97.8864 43.9728 98.3665 43.9728 98.9233H40.4699C40.4699 97.7812 40.7285 96.7898 41.2455 95.9489C41.7626 95.108 42.487 94.4574 43.4188 93.9972C44.3506 93.5369 45.4245 93.3068 46.6404 93.3068C47.8904 93.3068 48.9785 93.5284 49.9046 93.9716C50.8364 94.4091 51.5609 95.017 52.0779 95.7955C52.5949 96.5739 52.8535 97.4659 52.8535 98.4716C52.8535 99.1307 52.7228 99.7812 52.4614 100.423C52.2057 101.065 51.7484 101.778 51.0893 102.562C50.4302 103.341 49.5012 104.276 48.3023 105.366L45.754 107.864V107.983H53.0836V111H40.6404ZM56.0784 107.932V105.026L63.3653 93.5455H65.871V97.5682H64.388L59.7943 104.838V104.974H70.1494V107.932H56.0784ZM64.4562 111V107.045L64.5244 105.759V93.5455H67.9846V111H64.4562ZM73.5682 111V108.341L79.7813 102.588C80.3097 102.077 80.7529 101.616 81.1108 101.207C81.4745 100.798 81.75 100.398 81.9375 100.006C82.125 99.608 82.2188 99.179 82.2188 98.7188C82.2188 98.2074 82.1023 97.767 81.8693 97.3977C81.6364 97.0227 81.3182 96.7358 80.9148 96.5369C80.5114 96.3324 80.054 96.2301 79.5426 96.2301C79.0086 96.2301 78.5426 96.3381 78.1449 96.554C77.7472 96.7699 77.4404 97.0795 77.2245 97.483C77.0086 97.8864 76.9006 98.3665 76.9006 98.9233H73.3978C73.3978 97.7812 73.6563 96.7898 74.1733 95.9489C74.6904 95.108 75.4148 94.4574 76.3466 93.9972C77.2784 93.5369 78.3523 93.3068 79.5682 93.3068C80.8182 93.3068 81.9063 93.5284 82.8324 93.9716C83.7642 94.4091 84.4887 95.017 85.0057 95.7955C85.5228 96.5739 85.7813 97.4659 85.7813 98.4716C85.7813 99.1307 85.6506 99.7812 85.3892 100.423C85.1336 101.065 84.6762 101.778 84.0171 102.562C83.358 103.341 82.429 104.276 81.2301 105.366L78.6818 107.864V107.983H86.0114V111H73.5682ZM95.8959 107.932V105.026L103.183 93.5455H105.688V97.5682H104.206L99.6118 104.838V104.974H109.967V107.932H95.8959ZM104.274 111V107.045L104.342 105.759V93.5455H107.802V111H104.274ZM119.761 111.239C118.556 111.239 117.482 111.017 116.539 110.574C115.602 110.131 114.857 109.52 114.306 108.741C113.755 107.963 113.468 107.071 113.445 106.065H117.025C117.065 106.741 117.349 107.29 117.877 107.71C118.406 108.131 119.033 108.341 119.761 108.341C120.34 108.341 120.852 108.213 121.295 107.957C121.744 107.696 122.093 107.335 122.343 106.875C122.599 106.409 122.727 105.875 122.727 105.273C122.727 104.659 122.596 104.119 122.335 103.653C122.079 103.187 121.724 102.824 121.269 102.562C120.815 102.301 120.295 102.168 119.71 102.162C119.198 102.162 118.701 102.267 118.218 102.477C117.741 102.687 117.369 102.974 117.102 103.338L113.82 102.75L114.647 93.5455H125.318V96.5625H117.69L117.238 100.935H117.34C117.647 100.503 118.11 100.145 118.729 99.8608C119.349 99.5767 120.042 99.4347 120.809 99.4347C121.86 99.4347 122.798 99.6818 123.622 100.176C124.445 100.67 125.096 101.349 125.573 102.213C126.05 103.071 126.286 104.06 126.281 105.179C126.286 106.355 126.014 107.401 125.462 108.315C124.917 109.224 124.153 109.94 123.17 110.463C122.193 110.98 121.056 111.239 119.761 111.239ZM136.513 111.239C135.616 111.233 134.749 111.082 133.914 110.787C133.084 110.491 132.34 110.011 131.681 109.347C131.022 108.682 130.499 107.801 130.113 106.705C129.732 105.608 129.542 104.261 129.542 102.665C129.547 101.199 129.715 99.8892 130.045 98.7358C130.38 97.5767 130.857 96.5937 131.476 95.7869C132.101 94.9801 132.849 94.3665 133.718 93.946C134.587 93.5199 135.562 93.3068 136.641 93.3068C137.806 93.3068 138.834 93.5341 139.726 93.9886C140.618 94.4375 141.334 95.0483 141.874 95.821C142.42 96.5938 142.749 97.4602 142.863 98.4205H139.224C139.082 97.8125 138.783 97.3352 138.329 96.9886C137.874 96.642 137.312 96.4688 136.641 96.4688C135.505 96.4688 134.641 96.9631 134.05 97.9517C133.465 98.9403 133.167 100.284 133.155 101.983H133.275C133.536 101.466 133.888 101.026 134.332 100.662C134.78 100.293 135.289 100.011 135.857 99.8182C136.431 99.6193 137.036 99.5199 137.672 99.5199C138.707 99.5199 139.627 99.7642 140.434 100.253C141.241 100.736 141.877 101.401 142.343 102.247C142.809 103.094 143.042 104.062 143.042 105.153C143.042 106.335 142.766 107.386 142.215 108.307C141.67 109.227 140.905 109.949 139.922 110.472C138.945 110.989 137.809 111.244 136.513 111.239ZM136.496 108.341C137.064 108.341 137.573 108.205 138.022 107.932C138.471 107.659 138.823 107.29 139.079 106.824C139.334 106.358 139.462 105.835 139.462 105.256C139.462 104.676 139.334 104.156 139.079 103.696C138.829 103.236 138.482 102.869 138.039 102.597C137.596 102.324 137.09 102.188 136.522 102.188C136.096 102.188 135.701 102.267 135.337 102.426C134.979 102.585 134.664 102.807 134.391 103.091C134.124 103.375 133.914 103.705 133.76 104.08C133.607 104.449 133.53 104.844 133.53 105.264C133.53 105.827 133.658 106.341 133.914 106.807C134.175 107.273 134.528 107.645 134.971 107.923C135.42 108.202 135.928 108.341 136.496 108.341ZM146.618 111V108.341L152.831 102.588C153.36 102.077 153.803 101.616 154.161 101.207C154.524 100.798 154.8 100.398 154.988 100.006C155.175 99.608 155.269 99.179 155.269 98.7188C155.269 98.2074 155.152 97.767 154.919 97.3977C154.686 97.0227 154.368 96.7358 153.965 96.5369C153.561 96.3324 153.104 96.2301 152.593 96.2301C152.059 96.2301 151.593 96.3381 151.195 96.554C150.797 96.7699 150.49 97.0795 150.274 97.483C150.059 97.8864 149.951 98.3665 149.951 98.9233H146.448C146.448 97.7812 146.706 96.7898 147.223 95.9489C147.74 95.108 148.465 94.4574 149.397 93.9972C150.328 93.5369 151.402 93.3068 152.618 93.3068C153.868 93.3068 154.956 93.5284 155.882 93.9716C156.814 94.4091 157.539 95.017 158.056 95.7955C158.573 96.5739 158.831 97.4659 158.831 98.4716C158.831 99.1307 158.701 99.7812 158.439 100.423C158.184 101.065 157.726 101.778 157.067 102.562C156.408 103.341 155.479 104.276 154.28 105.366L151.732 107.864V107.983H159.061V111H146.618ZM169.9 111L177.136 96.6818V96.5625H168.707V93.5455H180.954V96.6051L173.71 111H169.9ZM185.603 111L192.838 96.6818V96.5625H184.409V93.5455H196.657V96.6051L189.412 111H185.603ZM207.739 93.5455V111H204.049V97.0483H203.947L199.95 99.554V96.2812L204.271 93.5455H207.739ZM219.692 111.384C218.226 111.378 216.964 111.017 215.908 110.301C214.856 109.585 214.047 108.548 213.479 107.19C212.916 105.832 212.638 104.199 212.643 102.29C212.643 100.386 212.925 98.7642 213.487 97.4233C214.055 96.0824 214.865 95.0625 215.916 94.3636C216.973 93.6591 218.231 93.3068 219.692 93.3068C221.152 93.3068 222.408 93.6591 223.459 94.3636C224.516 95.0682 225.328 96.0909 225.896 97.4318C226.464 98.767 226.746 100.386 226.74 102.29C226.74 104.205 226.456 105.841 225.888 107.199C225.325 108.557 224.518 109.594 223.467 110.31C222.416 111.026 221.158 111.384 219.692 111.384ZM219.692 108.324C220.692 108.324 221.49 107.821 222.087 106.815C222.683 105.81 222.979 104.301 222.973 102.29C222.973 100.966 222.837 99.8636 222.564 98.983C222.297 98.1023 221.916 97.4403 221.422 96.9972C220.933 96.554 220.356 96.3324 219.692 96.3324C218.697 96.3324 217.902 96.8295 217.305 97.8239C216.709 98.8182 216.408 100.307 216.402 102.29C216.402 103.631 216.535 104.75 216.802 105.648C217.075 106.54 217.459 107.21 217.953 107.659C218.447 108.102 219.027 108.324 219.692 108.324ZM243.298 111.239C242.025 111.239 240.891 111.02 239.897 110.582C238.909 110.139 238.127 109.531 237.553 108.759C236.985 107.98 236.693 107.082 236.676 106.065H240.391C240.414 106.491 240.553 106.866 240.809 107.19C241.07 107.509 241.417 107.756 241.849 107.932C242.281 108.108 242.766 108.196 243.306 108.196C243.869 108.196 244.366 108.097 244.798 107.898C245.23 107.699 245.568 107.423 245.812 107.071C246.056 106.719 246.178 106.312 246.178 105.852C246.178 105.386 246.048 104.974 245.786 104.616C245.531 104.253 245.161 103.969 244.678 103.764C244.201 103.56 243.633 103.457 242.974 103.457H241.346V100.747H242.974C243.531 100.747 244.022 100.651 244.448 100.457C244.88 100.264 245.215 99.9972 245.454 99.6562C245.693 99.3097 245.812 98.9062 245.812 98.446C245.812 98.0085 245.707 97.625 245.497 97.2955C245.292 96.9602 245.002 96.6989 244.627 96.5114C244.258 96.3239 243.826 96.2301 243.332 96.2301C242.832 96.2301 242.374 96.321 241.96 96.5028C241.545 96.679 241.212 96.9318 240.962 97.2614C240.712 97.5909 240.579 97.9773 240.562 98.4205H237.025C237.042 97.4148 237.329 96.5284 237.886 95.7614C238.443 94.9943 239.193 94.3949 240.136 93.9631C241.085 93.5256 242.156 93.3068 243.349 93.3068C244.553 93.3068 245.607 93.5256 246.511 93.9631C247.414 94.4006 248.116 94.9915 248.616 95.7358C249.122 96.4744 249.372 97.304 249.366 98.2244C249.372 99.2017 249.068 100.017 248.454 100.67C247.846 101.324 247.053 101.739 246.076 101.915V102.051C247.36 102.216 248.337 102.662 249.008 103.389C249.684 104.111 250.019 105.014 250.014 106.099C250.019 107.094 249.732 107.977 249.153 108.75C248.579 109.523 247.786 110.131 246.775 110.574C245.764 111.017 244.605 111.239 243.298 111.239ZM260.001 111.239C258.797 111.239 257.723 111.017 256.78 110.574C255.842 110.131 255.098 109.52 254.547 108.741C253.996 107.963 253.709 107.071 253.686 106.065H257.266C257.305 106.741 257.589 107.29 258.118 107.71C258.646 108.131 259.274 108.341 260.001 108.341C260.581 108.341 261.092 108.213 261.535 107.957C261.984 107.696 262.334 107.335 262.584 106.875C262.839 106.409 262.967 105.875 262.967 105.273C262.967 104.659 262.837 104.119 262.575 103.653C262.32 103.187 261.964 102.824 261.51 102.562C261.055 102.301 260.535 102.168 259.95 102.162C259.439 102.162 258.942 102.267 258.459 102.477C257.981 102.687 257.609 102.974 257.342 103.338L254.061 102.75L254.888 93.5455H265.558V96.5625H257.93L257.479 100.935H257.581C257.888 100.503 258.351 100.145 258.97 99.8608C259.589 99.5767 260.283 99.4347 261.05 99.4347C262.101 99.4347 263.038 99.6818 263.862 100.176C264.686 100.67 265.337 101.349 265.814 102.213C266.291 103.071 266.527 104.06 266.521 105.179C266.527 106.355 266.254 107.401 265.703 108.315C265.158 109.224 264.393 109.94 263.41 110.463C262.433 110.98 261.297 111.239 260.001 111.239ZM276.899 111.384C275.433 111.378 274.172 111.017 273.115 110.301C272.064 109.585 271.254 108.548 270.686 107.19C270.123 105.832 269.845 104.199 269.851 102.29C269.851 100.386 270.132 98.7642 270.694 97.4233C271.262 96.0824 272.072 95.0625 273.123 94.3636C274.18 93.6591 275.439 93.3068 276.899 93.3068C278.359 93.3068 279.615 93.6591 280.666 94.3636C281.723 95.0682 282.535 96.0909 283.103 97.4318C283.672 98.767 283.953 100.386 283.947 102.29C283.947 104.205 283.663 105.841 283.095 107.199C282.532 108.557 281.726 109.594 280.674 110.31C279.623 111.026 278.365 111.384 276.899 111.384ZM276.899 108.324C277.899 108.324 278.697 107.821 279.294 106.815C279.89 105.81 280.186 104.301 280.18 102.29C280.18 100.966 280.044 99.8636 279.771 98.983C279.504 98.1023 279.123 97.4403 278.629 96.9972C278.14 96.554 277.564 96.3324 276.899 96.3324C275.905 96.3324 275.109 96.8295 274.512 97.8239C273.916 98.8182 273.615 100.307 273.609 102.29C273.609 103.631 273.743 104.75 274.01 105.648C274.282 106.54 274.666 107.21 275.16 107.659C275.655 108.102 276.234 108.324 276.899 108.324ZM287.76 111L294.996 96.6818V96.5625H286.567V93.5455H298.814V96.6051L291.57 111H287.76Z" fill="#E8E8E8"/>
</g>
<path d="M28.6477 135.016V142.289H27.7955L23.8324 136.578H23.7614V142.289H22.8807V135.016H23.733L27.7102 140.74H27.7812V135.016H28.6477ZM32.5123 142.402C32.0198 142.402 31.5878 142.285 31.2161 142.051C30.8468 141.816 30.5579 141.489 30.3496 141.067C30.1436 140.646 30.0407 140.153 30.0407 139.59C30.0407 139.022 30.1436 138.526 30.3496 138.102C30.5579 137.678 30.8468 137.349 31.2161 137.115C31.5878 136.88 32.0198 136.763 32.5123 136.763C33.0047 136.763 33.4355 136.88 33.8049 137.115C34.1766 137.349 34.4654 137.678 34.6713 138.102C34.8797 138.526 34.9838 139.022 34.9838 139.59C34.9838 140.153 34.8797 140.646 34.6713 141.067C34.4654 141.489 34.1766 141.816 33.8049 142.051C33.4355 142.285 33.0047 142.402 32.5123 142.402ZM32.5123 141.649C32.8863 141.649 33.1941 141.554 33.4355 141.362C33.677 141.17 33.8558 140.918 33.9718 140.605C34.0878 140.293 34.1458 139.954 34.1458 139.59C34.1458 139.225 34.0878 138.886 33.9718 138.571C33.8558 138.256 33.677 138.001 33.4355 137.807C33.1941 137.613 32.8863 137.516 32.5123 137.516C32.1382 137.516 31.8304 137.613 31.589 137.807C31.3475 138.001 31.1687 138.256 31.0527 138.571C30.9367 138.886 30.8787 139.225 30.8787 139.59C30.8787 139.954 30.9367 140.293 31.0527 140.605C31.1687 140.918 31.3475 141.17 31.589 141.362C31.8304 141.554 32.1382 141.649 32.5123 141.649ZM36.2631 142.289V136.834H37.0728V137.686H37.1438C37.2575 137.395 37.4409 137.169 37.6942 137.008C37.9476 136.845 38.2518 136.763 38.6069 136.763C38.9667 136.763 39.2662 136.845 39.5053 137.008C39.7468 137.169 39.935 137.395 40.07 137.686H40.1268C40.2665 137.405 40.476 137.181 40.7553 137.015C41.0347 136.847 41.3697 136.763 41.7603 136.763C42.248 136.763 42.6469 136.916 42.957 137.221C43.2672 137.524 43.4222 137.997 43.4222 138.638V142.289H42.5842V138.638C42.5842 138.236 42.4741 137.948 42.2539 137.775C42.0337 137.602 41.7745 137.516 41.4762 137.516C41.0927 137.516 40.7956 137.632 40.5849 137.864C40.3742 138.094 40.2688 138.385 40.2688 138.738V142.289H39.4165V138.553C39.4165 138.243 39.3159 137.993 39.1147 137.804C38.9135 137.612 38.6542 137.516 38.337 137.516C38.1192 137.516 37.9156 137.574 37.7262 137.69C37.5392 137.806 37.3877 137.967 37.2717 138.173C37.158 138.377 37.1012 138.612 37.1012 138.88V142.289H36.2631ZM47.2415 142.402C46.7159 142.402 46.2625 142.286 45.8814 142.054C45.5026 141.82 45.2102 141.493 45.0043 141.074C44.8007 140.653 44.6989 140.163 44.6989 139.604C44.6989 139.045 44.8007 138.553 45.0043 138.127C45.2102 137.698 45.4967 137.364 45.8636 137.125C46.233 136.884 46.6638 136.763 47.1562 136.763C47.4403 136.763 47.7209 136.81 47.9979 136.905C48.2749 137 48.527 137.154 48.7543 137.367C48.9815 137.578 49.1626 137.857 49.2976 138.205C49.4325 138.553 49.5 138.981 49.5 139.49V139.846H45.2955V139.121H48.6477C48.6477 138.813 48.5862 138.539 48.4631 138.297C48.3423 138.056 48.1695 137.865 47.9446 137.725C47.7221 137.586 47.4593 137.516 47.1562 137.516C46.8224 137.516 46.5336 137.599 46.2898 137.765C46.0483 137.928 45.8625 138.141 45.7322 138.404C45.602 138.667 45.5369 138.948 45.5369 139.249V139.732C45.5369 140.144 45.608 140.493 45.75 140.779C45.8944 141.064 46.0945 141.28 46.3501 141.429C46.6058 141.576 46.9029 141.649 47.2415 141.649C47.4616 141.649 47.6605 141.619 47.8381 141.557C48.018 141.493 48.1731 141.399 48.3033 141.273C48.4335 141.145 48.5341 140.987 48.6051 140.797L49.4148 141.024C49.3295 141.299 49.1863 141.541 48.9851 141.749C48.7839 141.955 48.5353 142.116 48.2393 142.232C47.9434 142.346 47.6108 142.402 47.2415 142.402ZM55.647 142.402C55.1925 142.402 54.7912 142.288 54.4432 142.058C54.0952 141.826 53.8229 141.499 53.6264 141.078C53.4299 140.654 53.3317 140.153 53.3317 139.576C53.3317 139.003 53.4299 138.506 53.6264 138.084C53.8229 137.663 54.0964 137.337 54.4467 137.108C54.7971 136.878 55.2019 136.763 55.6612 136.763C56.0163 136.763 56.2969 136.822 56.5028 136.941C56.7112 137.057 56.8698 137.189 56.9787 137.338C57.09 137.485 57.1764 137.606 57.2379 137.701H57.3089V135.016H58.147V142.289H57.3374V141.451H57.2379C57.1764 141.55 57.0888 141.676 56.9751 141.827C56.8615 141.976 56.6993 142.11 56.4886 142.228C56.2779 142.344 55.9974 142.402 55.647 142.402ZM55.7607 141.649C56.0968 141.649 56.3809 141.562 56.6129 141.387C56.8449 141.209 57.0213 140.964 57.142 140.652C57.2628 140.337 57.3232 139.973 57.3232 139.561C57.3232 139.154 57.264 138.798 57.1456 138.493C57.0272 138.185 56.852 137.946 56.62 137.775C56.388 137.602 56.1016 137.516 55.7607 137.516C55.4055 137.516 55.1096 137.607 54.8729 137.789C54.6385 137.969 54.4621 138.214 54.3438 138.524C54.2277 138.832 54.1697 139.178 54.1697 139.561C54.1697 139.95 54.2289 140.302 54.3473 140.62C54.468 140.935 54.6456 141.185 54.88 141.373C55.1167 141.557 55.4103 141.649 55.7607 141.649ZM62.0142 142.402C61.5218 142.402 61.0897 142.285 60.718 142.051C60.3487 141.816 60.0599 141.489 59.8516 141.067C59.6456 140.646 59.5426 140.153 59.5426 139.59C59.5426 139.022 59.6456 138.526 59.8516 138.102C60.0599 137.678 60.3487 137.349 60.718 137.115C61.0897 136.88 61.5218 136.763 62.0142 136.763C62.5066 136.763 62.9375 136.88 63.3068 137.115C63.6785 137.349 63.9673 137.678 64.1733 138.102C64.3816 138.526 64.4858 139.022 64.4858 139.59C64.4858 140.153 64.3816 140.646 64.1733 141.067C63.9673 141.489 63.6785 141.816 63.3068 142.051C62.9375 142.285 62.5066 142.402 62.0142 142.402ZM62.0142 141.649C62.3883 141.649 62.696 141.554 62.9375 141.362C63.179 141.17 63.3577 140.918 63.4737 140.605C63.5897 140.293 63.6477 139.954 63.6477 139.59C63.6477 139.225 63.5897 138.886 63.4737 138.571C63.3577 138.256 63.179 138.001 62.9375 137.807C62.696 137.613 62.3883 137.516 62.0142 137.516C61.6402 137.516 61.3324 137.613 61.0909 137.807C60.8494 138.001 60.6707 138.256 60.5547 138.571C60.4387 138.886 60.3807 139.225 60.3807 139.59C60.3807 139.954 60.4387 140.293 60.5547 140.605C60.6707 140.918 60.8494 141.17 61.0909 141.362C61.3324 141.554 61.6402 141.649 62.0142 141.649ZM70.9498 136.834V137.544H68.123V136.834H70.9498ZM68.9469 135.527H69.785V140.726C69.785 140.963 69.8193 141.14 69.888 141.259C69.959 141.375 70.0489 141.453 70.1578 141.493C70.2691 141.531 70.3863 141.55 70.5094 141.55C70.6017 141.55 70.6775 141.545 70.7367 141.536C70.7959 141.524 70.8432 141.515 70.8787 141.507L71.0492 142.26C70.9924 142.282 70.9131 142.303 70.8113 142.324C70.7095 142.348 70.5804 142.36 70.4242 142.36C70.1874 142.36 69.9554 142.309 69.7282 142.207C69.5033 142.105 69.3162 141.95 69.1671 141.742C69.0203 141.533 68.9469 141.271 68.9469 140.953V135.527ZM72.2104 142.289V136.834H73.0485V142.289H72.2104ZM72.6365 135.925C72.4732 135.925 72.3323 135.869 72.214 135.758C72.098 135.647 72.04 135.513 72.04 135.357C72.04 135.201 72.098 135.067 72.214 134.956C72.3323 134.844 72.4732 134.789 72.6365 134.789C72.7999 134.789 72.9396 134.844 73.0556 134.956C73.1739 135.067 73.2331 135.201 73.2331 135.357C73.2331 135.513 73.1739 135.647 73.0556 135.758C72.9396 135.869 72.7999 135.925 72.6365 135.925ZM76.9556 136.834V137.544H74.1289V136.834H76.9556ZM74.9528 135.527H75.7908V140.726C75.7908 140.963 75.8252 141.14 75.8938 141.259C75.9648 141.375 76.0548 141.453 76.1637 141.493C76.275 141.531 76.3922 141.55 76.5153 141.55C76.6076 141.55 76.6834 141.545 76.7425 141.536C76.8017 141.524 76.8491 141.515 76.8846 141.507L77.055 142.26C76.9982 142.282 76.9189 142.303 76.8171 142.324C76.7153 142.348 76.5863 142.36 76.43 142.36C76.1933 142.36 75.9613 142.309 75.734 142.207C75.5091 142.105 75.3221 141.95 75.1729 141.742C75.0262 141.533 74.9528 141.271 74.9528 140.953V135.527ZM81.6538 140.059V136.834H82.4918V142.289H81.6538V141.365H81.5969C81.4691 141.642 81.2702 141.878 81.0004 142.072C80.7305 142.264 80.3896 142.36 79.9776 142.36C79.6367 142.36 79.3337 142.285 79.0685 142.136C78.8034 141.984 78.5951 141.757 78.4435 141.454C78.292 141.149 78.2163 140.764 78.2163 140.3V136.834H79.0543V140.243C79.0543 140.641 79.1656 140.958 79.3881 141.195C79.613 141.432 79.8995 141.55 80.2475 141.55C80.4558 141.55 80.6677 141.497 80.8832 141.39C81.101 141.284 81.2833 141.12 81.43 140.9C81.5792 140.68 81.6538 140.399 81.6538 140.059ZM84.8649 135.016V142.289H84.0268V135.016H84.8649ZM88.005 142.417C87.6593 142.417 87.3456 142.351 87.0639 142.221C86.7822 142.089 86.5585 141.898 86.3928 141.649C86.227 141.399 86.1442 141.096 86.1442 140.74C86.1442 140.428 86.2057 140.175 86.3288 139.98C86.4519 139.784 86.6165 139.63 86.8224 139.519C87.0284 139.408 87.2557 139.325 87.5043 139.27C87.7552 139.213 88.0073 139.168 88.2607 139.135C88.5921 139.093 88.8608 139.061 89.0668 139.039C89.2751 139.016 89.4266 138.977 89.5213 138.922C89.6184 138.868 89.6669 138.773 89.6669 138.638V138.61C89.6669 138.259 89.571 137.987 89.3793 137.793C89.1899 137.599 88.9022 137.502 88.5163 137.502C88.1162 137.502 87.8026 137.589 87.5753 137.765C87.348 137.94 87.1882 138.127 87.0959 138.326L86.3004 138.042C86.4425 137.71 86.6319 137.452 86.8686 137.267C87.1077 137.08 87.3681 136.95 87.6499 136.877C87.9339 136.801 88.2133 136.763 88.4879 136.763C88.6631 136.763 88.8643 136.784 89.0916 136.827C89.3213 136.867 89.5426 136.951 89.7557 137.079C89.9711 137.207 90.1499 137.4 90.2919 137.658C90.4339 137.916 90.505 138.262 90.505 138.695V142.289H89.6669V141.55H89.6243C89.5675 141.668 89.4728 141.795 89.3402 141.93C89.2076 142.065 89.0313 142.18 88.8111 142.274C88.5909 142.369 88.3222 142.417 88.005 142.417ZM88.1328 141.664C88.4643 141.664 88.7436 141.599 88.9709 141.468C89.2005 141.338 89.3733 141.17 89.4893 140.964C89.6077 140.758 89.6669 140.542 89.6669 140.314V139.547C89.6314 139.59 89.5533 139.629 89.4325 139.664C89.3142 139.698 89.1768 139.727 89.0206 139.753C88.8667 139.777 88.7164 139.798 88.5696 139.817C88.4252 139.834 88.308 139.848 88.218 139.86C88.0002 139.888 87.7966 139.934 87.6072 139.998C87.4202 140.06 87.2687 140.153 87.1527 140.279C87.0391 140.402 86.9822 140.57 86.9822 140.783C86.9822 141.074 87.09 141.294 87.3054 141.444C87.5232 141.59 87.799 141.664 88.1328 141.664ZM92.0346 142.289V136.834H92.8443V137.658H92.9011C93.0005 137.388 93.1805 137.169 93.4409 137.001C93.7013 136.833 93.9949 136.749 94.3216 136.749C94.3831 136.749 94.46 136.75 94.5524 136.752C94.6447 136.755 94.7145 136.758 94.7619 136.763V137.615C94.7335 137.608 94.6684 137.598 94.5666 137.583C94.4672 137.567 94.3618 137.559 94.2505 137.559C93.9854 137.559 93.7486 137.614 93.5403 137.725C93.3343 137.834 93.171 137.986 93.0502 138.18C92.9319 138.372 92.8727 138.591 92.8727 138.837V142.289H92.0346Z" fill="white"/>
<g filter="url(#filter4_di_1804_189)">
<path d="M22.8849 152.107H25.5398L28.3438 158.948H28.4631L31.267 152.107H33.9219V162.289H31.8338V155.662H31.7493L29.1143 162.239H27.6925L25.0575 155.637H24.973V162.289H22.8849V152.107ZM37.4505 162.289H35.1436L38.6586 152.107H41.4327L44.9426 162.289H42.6358L40.0854 154.434H40.0059L37.4505 162.289ZM37.3063 158.287H42.7551V159.967H37.3063V158.287ZM44.5325 152.107H46.9437L49.2654 156.492H49.3649L51.6866 152.107H54.0978L50.3841 158.689V162.289H48.2463V158.689L44.5325 152.107ZM55.2736 162.289V152.107H57.4263V156.596H57.5605L61.2246 152.107H63.8049L60.0265 156.666L63.8496 162.289H61.2743L58.4853 158.103L57.4263 159.395V162.289H55.2736ZM68.1662 162.289V152.107H72.2429C72.992 152.107 73.6167 152.218 74.1172 152.44C74.6177 152.662 74.9938 152.97 75.2457 153.365C75.4976 153.756 75.6236 154.207 75.6236 154.717C75.6236 155.115 75.544 155.464 75.3849 155.766C75.2259 156.064 75.0071 156.31 74.7287 156.502C74.4536 156.691 74.1387 156.825 73.7841 156.904V157.004C74.1719 157.02 74.5348 157.13 74.8729 157.332C75.2143 157.534 75.491 157.818 75.7031 158.182C75.9152 158.543 76.0213 158.974 76.0213 159.475C76.0213 160.015 75.8871 160.497 75.6186 160.922C75.3535 161.342 74.9607 161.676 74.4403 161.921C73.92 162.166 73.2786 162.289 72.5163 162.289H68.1662ZM70.3189 160.529H72.0739C72.6738 160.529 73.1113 160.414 73.3864 160.186C73.6615 159.954 73.799 159.645 73.799 159.261C73.799 158.979 73.7311 158.731 73.5952 158.515C73.4593 158.3 73.2654 158.131 73.0135 158.008C72.7649 157.886 72.4683 157.824 72.1236 157.824H70.3189V160.529ZM70.3189 156.368H71.9148C72.2098 156.368 72.4716 156.316 72.7003 156.213C72.9323 156.107 73.1146 155.958 73.2472 155.766C73.383 155.574 73.451 155.343 73.451 155.075C73.451 154.707 73.3201 154.41 73.0582 154.185C72.7997 153.96 72.4318 153.847 71.9545 153.847H70.3189V156.368ZM77.4221 162.289V152.107H81.4391C82.208 152.107 82.8643 152.244 83.4078 152.52C83.9547 152.791 84.3707 153.177 84.6557 153.678C84.9441 154.175 85.0882 154.76 85.0882 155.433C85.0882 156.109 84.9424 156.691 84.6507 157.178C84.3591 157.662 83.9365 158.033 83.383 158.292C82.8328 158.55 82.1666 158.679 81.3844 158.679H78.6948V156.949H81.0364C81.4474 156.949 81.7888 156.893 82.0605 156.78C82.3323 156.667 82.5345 156.498 82.6671 156.273C82.803 156.048 82.8709 155.768 82.8709 155.433C82.8709 155.095 82.803 154.81 82.6671 154.578C82.5345 154.346 82.3307 154.17 82.0556 154.051C81.7838 153.928 81.4408 153.867 81.0265 153.867H79.5748V162.289H77.4221ZM82.9206 157.655L85.4512 162.289H83.0748L80.5989 157.655H82.9206ZM88.7623 152.107V162.289H86.6096V152.107H88.7623ZM90.1456 153.882V152.107H98.5078V153.882H95.3906V162.289H93.2628V153.882H90.1456ZM108.777 157.198C108.777 158.308 108.566 159.253 108.145 160.032C107.728 160.81 107.158 161.405 106.435 161.816C105.716 162.224 104.907 162.428 104.009 162.428C103.104 162.428 102.292 162.222 101.573 161.811C100.854 161.4 100.285 160.806 99.8675 160.027C99.4499 159.248 99.2411 158.305 99.2411 157.198C99.2411 156.087 99.4499 155.143 99.8675 154.364C100.285 153.585 100.854 152.992 101.573 152.584C102.292 152.173 103.104 151.968 104.009 151.968C104.907 151.968 105.716 152.173 106.435 152.584C107.158 152.992 107.728 153.585 108.145 154.364C108.566 155.143 108.777 156.087 108.777 157.198ZM106.594 157.198C106.594 156.479 106.486 155.872 106.271 155.378C106.059 154.884 105.759 154.51 105.371 154.255C104.983 153.999 104.529 153.872 104.009 153.872C103.489 153.872 103.034 153.999 102.647 154.255C102.259 154.51 101.957 154.884 101.742 155.378C101.53 155.872 101.424 156.479 101.424 157.198C101.424 157.917 101.53 158.524 101.742 159.017C101.957 159.511 102.259 159.886 102.647 160.141C103.034 160.396 103.489 160.524 104.009 160.524C104.529 160.524 104.983 160.396 105.371 160.141C105.759 159.886 106.059 159.511 106.271 159.017C106.486 158.524 106.594 157.917 106.594 157.198Z" fill="white"/>
</g>
<path d="M22.8807 189.289V182.016H27.2699V182.797H23.7614V185.255H27.0426V186.036H23.7614V188.507H27.3267V189.289H22.8807ZM29.3686 183.834L30.6754 186.064L31.9822 183.834H32.9482L31.1868 186.561L32.9482 189.289H31.9822L30.6754 187.172L29.3686 189.289H28.4027L30.1357 186.561L28.4027 183.834H29.3686ZM34.144 191.334V183.834H34.9537V184.701H35.0531C35.1146 184.606 35.1999 184.485 35.3088 184.338C35.42 184.189 35.5787 184.057 35.7846 183.941C35.993 183.822 36.2747 183.763 36.6298 183.763C37.0891 183.763 37.4939 183.878 37.8443 184.108C38.1947 184.337 38.4681 184.663 38.6646 185.084C38.8611 185.506 38.9593 186.003 38.9593 186.576C38.9593 187.153 38.8611 187.654 38.6646 188.078C38.4681 188.499 38.1958 188.826 37.8478 189.058C37.4998 189.288 37.0985 189.402 36.644 189.402C36.2936 189.402 36.0131 189.344 35.8024 189.228C35.5917 189.11 35.4295 188.976 35.3159 188.827C35.2022 188.676 35.1146 188.55 35.0531 188.451H34.9821V191.334H34.144ZM34.9679 186.561C34.9679 186.973 35.0282 187.337 35.149 187.652C35.2697 187.964 35.4461 188.209 35.6781 188.387C35.9101 188.562 36.1942 188.649 36.5304 188.649C36.8807 188.649 37.1731 188.557 37.4075 188.373C37.6442 188.185 37.8218 187.935 37.9402 187.62C38.0609 187.302 38.1213 186.95 38.1213 186.561C38.1213 186.178 38.0621 185.832 37.9437 185.524C37.8277 185.214 37.6513 184.969 37.4146 184.789C37.1802 184.607 36.8855 184.516 36.5304 184.516C36.1895 184.516 35.903 184.602 35.671 184.775C35.439 184.946 35.2638 185.185 35.1454 185.493C35.027 185.798 34.9679 186.154 34.9679 186.561ZM40.2377 189.289V183.834H41.0758V189.289H40.2377ZM40.6639 182.925C40.5005 182.925 40.3597 182.869 40.2413 182.758C40.1253 182.647 40.0673 182.513 40.0673 182.357C40.0673 182.201 40.1253 182.067 40.2413 181.956C40.3597 181.844 40.5005 181.789 40.6639 181.789C40.8272 181.789 40.9669 181.844 41.0829 181.956C41.2013 182.067 41.2605 182.201 41.2605 182.357C41.2605 182.513 41.2013 182.647 41.0829 182.758C40.9669 182.869 40.8272 182.925 40.6639 182.925ZM42.6108 189.289V183.834H43.4205V184.658H43.4773C43.5767 184.388 43.7566 184.169 44.017 184.001C44.2775 183.833 44.571 183.749 44.8977 183.749C44.9593 183.749 45.0362 183.75 45.1286 183.752C45.2209 183.755 45.2907 183.758 45.3381 183.763V184.615C45.3097 184.608 45.2446 184.598 45.1428 184.583C45.0433 184.567 44.938 184.559 44.8267 184.559C44.5616 184.559 44.3248 184.614 44.1165 184.725C43.9105 184.834 43.7472 184.986 43.6264 185.18C43.508 185.372 43.4489 185.591 43.4489 185.837V189.289H42.6108ZM47.9366 189.417C47.591 189.417 47.2773 189.351 46.9956 189.221C46.7138 189.089 46.4901 188.898 46.3244 188.649C46.1587 188.399 46.0758 188.096 46.0758 187.74C46.0758 187.428 46.1374 187.175 46.2605 186.98C46.3836 186.784 46.5481 186.63 46.7541 186.519C46.96 186.408 47.1873 186.325 47.4359 186.27C47.6868 186.213 47.939 186.168 48.1923 186.135C48.5237 186.093 48.7924 186.061 48.9984 186.039C49.2067 186.016 49.3583 185.977 49.4529 185.922C49.55 185.868 49.5985 185.773 49.5985 185.638V185.61C49.5985 185.259 49.5027 184.987 49.3109 184.793C49.1215 184.599 48.8339 184.502 48.448 184.502C48.0479 184.502 47.7342 184.589 47.5069 184.765C47.2797 184.94 47.1199 185.127 47.0275 185.326L46.2321 185.042C46.3741 184.71 46.5635 184.452 46.8002 184.267C47.0394 184.08 47.2998 183.95 47.5815 183.877C47.8656 183.801 48.1449 183.763 48.4196 183.763C48.5948 183.763 48.796 183.784 49.0233 183.827C49.2529 183.867 49.4743 183.951 49.6873 184.079C49.9028 184.207 50.0815 184.4 50.2235 184.658C50.3656 184.916 50.4366 185.262 50.4366 185.695V189.289H49.5985V188.55H49.5559C49.4991 188.668 49.4044 188.795 49.2718 188.93C49.1393 189.065 48.9629 189.18 48.7427 189.274C48.5225 189.369 48.2538 189.417 47.9366 189.417ZM48.0645 188.664C48.3959 188.664 48.6752 188.599 48.9025 188.468C49.1322 188.338 49.305 188.17 49.421 187.964C49.5394 187.758 49.5985 187.542 49.5985 187.314V186.547C49.563 186.59 49.4849 186.629 49.3642 186.664C49.2458 186.698 49.1085 186.727 48.9522 186.753C48.7984 186.777 48.648 186.798 48.5012 186.817C48.3568 186.834 48.2396 186.848 48.1497 186.86C47.9319 186.888 47.7283 186.934 47.5389 186.998C47.3519 187.06 47.2003 187.153 47.0843 187.279C46.9707 187.402 46.9139 187.57 46.9139 187.783C46.9139 188.074 47.0216 188.294 47.237 188.444C47.4548 188.59 47.7306 188.664 48.0645 188.664ZM54.1822 189.402C53.6708 189.402 53.2305 189.282 52.8612 189.04C52.4918 188.799 52.2077 188.466 52.0089 188.042C51.81 187.618 51.7106 187.134 51.7106 186.59C51.7106 186.036 51.8124 185.547 52.016 185.123C52.2219 184.697 52.5084 184.364 52.8754 184.125C53.2447 183.884 53.6755 183.763 54.168 183.763C54.5515 183.763 54.8971 183.834 55.2049 183.976C55.5127 184.118 55.7648 184.317 55.9613 184.573C56.1578 184.828 56.2797 185.127 56.3271 185.468H55.489C55.4251 185.219 55.283 184.999 55.0629 184.807C54.8451 184.613 54.5515 184.516 54.1822 184.516C53.8555 184.516 53.569 184.601 53.3228 184.772C53.079 184.94 52.8884 185.178 52.7511 185.485C52.6161 185.791 52.5487 186.149 52.5487 186.561C52.5487 186.983 52.6149 187.35 52.7475 187.662C52.8825 187.975 53.0719 188.217 53.3157 188.39C53.5619 188.563 53.8507 188.649 54.1822 188.649C54.4 188.649 54.5977 188.612 54.7752 188.536C54.9528 188.46 55.1031 188.351 55.2262 188.209C55.3493 188.067 55.4369 187.897 55.489 187.698H56.3271C56.2797 188.02 56.1625 188.31 55.9755 188.568C55.7908 188.823 55.5458 189.027 55.2404 189.179C54.9374 189.328 54.5846 189.402 54.1822 189.402ZM53.7844 189.26H54.4805L54.4237 189.544C54.6083 189.573 54.7776 189.65 54.9315 189.775C55.0853 189.903 55.1623 190.105 55.1623 190.382C55.1623 190.688 55.0356 190.936 54.7823 191.128C54.5314 191.322 54.1609 191.419 53.6708 191.419L53.6424 190.865C53.8626 190.865 54.0449 190.83 54.1893 190.759C54.3361 190.69 54.4094 190.574 54.4094 190.411C54.4094 190.248 54.3491 190.136 54.2283 190.077C54.1076 190.018 53.9123 189.978 53.6424 189.956L53.7844 189.26ZM59.1573 189.417C58.8117 189.417 58.498 189.351 58.2163 189.221C57.9345 189.089 57.7108 188.898 57.5451 188.649C57.3794 188.399 57.2965 188.096 57.2965 187.74C57.2965 187.428 57.3581 187.175 57.4812 186.98C57.6043 186.784 57.7688 186.63 57.9748 186.519C58.1808 186.408 58.408 186.325 58.6566 186.27C58.9076 186.213 59.1597 186.168 59.413 186.135C59.7444 186.093 60.0131 186.061 60.2191 186.039C60.4274 186.016 60.579 185.977 60.6737 185.922C60.7707 185.868 60.8192 185.773 60.8192 185.638V185.61C60.8192 185.259 60.7234 184.987 60.5316 184.793C60.3422 184.599 60.0546 184.502 59.6687 184.502C59.2686 184.502 58.9549 184.589 58.7276 184.765C58.5004 184.94 58.3406 185.127 58.2482 185.326L57.4528 185.042C57.5948 184.71 57.7842 184.452 58.021 184.267C58.2601 184.08 58.5205 183.95 58.8022 183.877C59.0863 183.801 59.3656 183.763 59.6403 183.763C59.8155 183.763 60.0167 183.784 60.244 183.827C60.4736 183.867 60.695 183.951 60.908 184.079C61.1235 184.207 61.3022 184.4 61.4442 184.658C61.5863 184.916 61.6573 185.262 61.6573 185.695V189.289H60.8192V188.55H60.7766C60.7198 188.668 60.6251 188.795 60.4925 188.93C60.36 189.065 60.1836 189.18 59.9634 189.274C59.7433 189.369 59.4746 189.417 59.1573 189.417ZM59.2852 188.664C59.6166 188.664 59.896 188.599 60.1232 188.468C60.3529 188.338 60.5257 188.17 60.6417 187.964C60.7601 187.758 60.8192 187.542 60.8192 187.314V186.547C60.7837 186.59 60.7056 186.629 60.5849 186.664C60.4665 186.698 60.3292 186.727 60.1729 186.753C60.0191 186.777 59.8687 186.798 59.7219 186.817C59.5775 186.834 59.4603 186.848 59.3704 186.86C59.1526 186.888 58.949 186.934 58.7596 186.998C58.5726 187.06 58.421 187.153 58.305 187.279C58.1914 187.402 58.1346 187.57 58.1346 187.783C58.1346 188.074 58.2423 188.294 58.4577 188.444C58.6755 188.59 58.9513 188.664 59.2852 188.664ZM58.6033 183.181L57.9499 183.152C57.9499 182.79 58.0529 182.494 58.2589 182.265C58.4672 182.033 58.7241 181.917 59.0295 181.917C59.1644 181.917 59.284 181.94 59.3881 181.988C59.4923 182.033 59.5917 182.085 59.6864 182.144C59.7811 182.203 59.8782 182.256 59.9776 182.304C60.0794 182.349 60.1942 182.371 60.3221 182.371C60.457 182.371 60.5707 182.319 60.663 182.215C60.7577 182.108 60.805 181.98 60.805 181.831L61.4442 181.888C61.4442 182.257 61.3401 182.551 61.1317 182.769C60.9258 182.987 60.6701 183.096 60.3647 183.096C60.2013 183.096 60.0664 183.073 59.9599 183.028C59.8533 182.981 59.7586 182.927 59.6758 182.868C59.5929 182.809 59.5053 182.757 59.413 182.712C59.3207 182.665 59.207 182.641 59.0721 182.641C58.9371 182.641 58.8247 182.694 58.7347 182.801C58.6471 182.905 58.6033 183.032 58.6033 183.181ZM65.4029 189.402C64.9105 189.402 64.4784 189.285 64.1067 189.051C63.7374 188.816 63.4486 188.489 63.2402 188.067C63.0343 187.646 62.9313 187.153 62.9313 186.59C62.9313 186.022 63.0343 185.526 63.2402 185.102C63.4486 184.678 63.7374 184.349 64.1067 184.115C64.4784 183.88 64.9105 183.763 65.4029 183.763C65.8953 183.763 66.3262 183.88 66.6955 184.115C67.0672 184.349 67.356 184.678 67.562 185.102C67.7703 185.526 67.8745 186.022 67.8745 186.59C67.8745 187.153 67.7703 187.646 67.562 188.067C67.356 188.489 67.0672 188.816 66.6955 189.051C66.3262 189.285 65.8953 189.402 65.4029 189.402ZM65.4029 188.649C65.7769 188.649 66.0847 188.554 66.3262 188.362C66.5676 188.17 66.7464 187.918 66.8624 187.605C66.9784 187.293 67.0364 186.954 67.0364 186.59C67.0364 186.225 66.9784 185.886 66.8624 185.571C66.7464 185.256 66.5676 185.001 66.3262 184.807C66.0847 184.613 65.7769 184.516 65.4029 184.516C65.0288 184.516 64.7211 184.613 64.4796 184.807C64.2381 185.001 64.0594 185.256 63.9434 185.571C63.8274 185.886 63.7694 186.225 63.7694 186.59C63.7694 186.954 63.8274 187.293 63.9434 187.605C64.0594 187.918 64.2381 188.17 64.4796 188.362C64.7211 188.554 65.0288 188.649 65.4029 188.649Z" fill="white"/>
<g filter="url(#filter5_di_1804_189)">
<path d="M26.8175 209.512C25.9624 209.509 25.2266 209.299 24.6101 208.881C23.9969 208.463 23.5246 207.859 23.1932 207.066C22.8651 206.274 22.7027 205.321 22.706 204.208C22.706 203.097 22.87 202.151 23.1982 201.369C23.5296 200.587 24.0019 199.992 24.6151 199.584C25.2315 199.173 25.9657 198.968 26.8175 198.968C27.6693 198.968 28.4018 199.173 29.0149 199.584C29.6314 199.995 30.1054 200.592 30.4368 201.374C30.7682 202.153 30.9323 203.097 30.929 204.208C30.929 205.325 30.7633 206.279 30.4318 207.071C30.1037 207.864 29.633 208.468 29.0199 208.886C28.4067 209.304 27.6726 209.512 26.8175 209.512ZM26.8175 207.728C27.4008 207.728 27.8665 207.434 28.2145 206.848C28.5625 206.261 28.7348 205.381 28.7315 204.208C28.7315 203.435 28.652 202.792 28.4929 202.279C28.3371 201.765 28.1151 201.379 27.8267 201.12C27.5417 200.862 27.2053 200.733 26.8175 200.733C26.2375 200.733 25.7734 201.023 25.4254 201.603C25.0774 202.183 24.9018 203.051 24.8984 204.208C24.8984 204.99 24.9763 205.643 25.1321 206.167C25.2912 206.687 25.5149 207.078 25.8033 207.34C26.0916 207.598 26.4297 207.728 26.8175 207.728ZM32.464 209.289V207.738L36.0882 204.382C36.3965 204.083 36.655 203.815 36.8638 203.576C37.0759 203.338 37.2367 203.104 37.3461 202.875C37.4554 202.643 37.5101 202.393 37.5101 202.125C37.5101 201.826 37.4422 201.569 37.3063 201.354C37.1704 201.135 36.9848 200.968 36.7495 200.852C36.5141 200.733 36.2473 200.673 35.949 200.673C35.6375 200.673 35.3657 200.736 35.1337 200.862C34.9017 200.988 34.7227 201.168 34.5968 201.404C34.4708 201.639 34.4078 201.919 34.4078 202.244H32.3645C32.3645 201.578 32.5153 200.999 32.8169 200.509C33.1185 200.018 33.5411 199.639 34.0847 199.37C34.6283 199.102 35.2547 198.968 35.964 198.968C36.6931 198.968 37.3278 199.097 37.8681 199.355C38.4116 199.611 38.8342 199.965 39.1358 200.419C39.4374 200.873 39.5882 201.394 39.5882 201.98C39.5882 202.365 39.512 202.744 39.3596 203.119C39.2104 203.493 38.9436 203.909 38.5591 204.367C38.1747 204.821 37.6328 205.366 36.9334 206.002L35.4469 207.459V207.529H39.7225V209.289H32.464ZM45.7369 198.63L42.4556 210.82H40.631L43.9123 198.63H45.7369ZM50.5009 209.428C49.7585 209.428 49.0972 209.3 48.5172 209.045C47.9405 208.787 47.4848 208.432 47.15 207.981C46.8186 207.527 46.6479 207.003 46.638 206.41H48.8056C48.8188 206.659 48.9 206.877 49.0492 207.066C49.2016 207.252 49.4038 207.396 49.6557 207.499C49.9076 207.602 50.191 207.653 50.5059 207.653C50.834 207.653 51.124 207.595 51.3759 207.479C51.6278 207.363 51.825 207.202 51.9675 206.997C52.11 206.791 52.1813 206.554 52.1813 206.286C52.1813 206.014 52.1051 205.774 51.9526 205.565C51.8034 205.353 51.588 205.187 51.3063 205.068C51.0279 204.948 50.6964 204.889 50.312 204.889H49.3624V203.308H50.312C50.6368 203.308 50.9235 203.252 51.1721 203.139C51.4239 203.026 51.6195 202.87 51.7587 202.672C51.8979 202.469 51.9675 202.234 51.9675 201.966C51.9675 201.71 51.9062 201.487 51.7836 201.294C51.6642 201.099 51.4952 200.946 51.2765 200.837C51.061 200.728 50.8091 200.673 50.5208 200.673C50.2291 200.673 49.9623 200.726 49.7203 200.832C49.4784 200.935 49.2845 201.082 49.1387 201.274C48.9928 201.467 48.915 201.692 48.905 201.951H46.8418C46.8517 201.364 47.0191 200.847 47.3439 200.399C47.6687 199.952 48.1062 199.602 48.6564 199.35C49.2099 199.095 49.8347 198.968 50.5307 198.968C51.2334 198.968 51.8482 199.095 52.3752 199.35C52.9022 199.606 53.3115 199.95 53.6032 200.385C53.8981 200.815 54.044 201.299 54.0407 201.836C54.044 202.406 53.8667 202.882 53.5087 203.263C53.1541 203.644 52.6917 203.886 52.1216 203.989V204.069C52.8707 204.165 53.4408 204.425 53.8319 204.849C54.2263 205.27 54.4218 205.797 54.4185 206.43C54.4218 207.01 54.2544 207.525 53.9164 207.976C53.5816 208.427 53.1193 208.782 52.5293 209.04C51.9393 209.299 51.2632 209.428 50.5009 209.428ZM59.9581 209.512C59.103 209.509 58.3672 209.299 57.7507 208.881C57.1375 208.463 56.6652 207.859 56.3338 207.066C56.0057 206.274 55.8433 205.321 55.8466 204.208C55.8466 203.097 56.0107 202.151 56.3388 201.369C56.6702 200.587 57.1425 199.992 57.7557 199.584C58.3722 199.173 59.1063 198.968 59.9581 198.968C60.8099 198.968 61.5424 199.173 62.1555 199.584C62.772 199.995 63.246 200.592 63.5774 201.374C63.9089 202.153 64.0729 203.097 64.0696 204.208C64.0696 205.325 63.9039 206.279 63.5724 207.071C63.2443 207.864 62.7737 208.468 62.1605 208.886C61.5473 209.304 60.8132 209.512 59.9581 209.512ZM59.9581 207.728C60.5414 207.728 61.0071 207.434 61.3551 206.848C61.7031 206.261 61.8755 205.381 61.8722 204.208C61.8722 203.435 61.7926 202.792 61.6335 202.279C61.4777 201.765 61.2557 201.379 60.9673 201.12C60.6823 200.862 60.3459 200.733 59.9581 200.733C59.3781 200.733 58.9141 201.023 58.5661 201.603C58.218 202.183 58.0424 203.051 58.0391 204.208C58.0391 204.99 58.117 205.643 58.2727 206.167C58.4318 206.687 58.6555 207.078 58.9439 207.34C59.2322 207.598 59.5703 207.728 59.9581 207.728Z" fill="white"/>
</g>
<path d="M179.623 184.289H178.743C178.691 184.035 178.599 183.813 178.469 183.621C178.341 183.429 178.185 183.268 178 183.138C177.818 183.006 177.616 182.906 177.393 182.84C177.171 182.774 176.939 182.74 176.697 182.74C176.257 182.74 175.858 182.852 175.5 183.074C175.145 183.297 174.862 183.625 174.652 184.058C174.443 184.491 174.339 185.023 174.339 185.652C174.339 186.282 174.443 186.814 174.652 187.247C174.862 187.68 175.145 188.008 175.5 188.23C175.858 188.453 176.257 188.564 176.697 188.564C176.939 188.564 177.171 188.531 177.393 188.465C177.616 188.399 177.818 188.3 178 188.17C178.185 188.038 178.341 187.875 178.469 187.684C178.599 187.489 178.691 187.267 178.743 187.016H179.623C179.557 187.388 179.436 187.72 179.261 188.014C179.086 188.307 178.868 188.557 178.608 188.763C178.347 188.967 178.055 189.122 177.731 189.228C177.409 189.335 177.064 189.388 176.697 189.388C176.077 189.388 175.525 189.237 175.042 188.934C174.559 188.631 174.179 188.2 173.902 187.641C173.625 187.082 173.487 186.419 173.487 185.652C173.487 184.885 173.625 184.222 173.902 183.664C174.179 183.105 174.559 182.674 175.042 182.371C175.525 182.068 176.077 181.917 176.697 181.917C177.064 181.917 177.409 181.97 177.731 182.076C178.055 182.183 178.347 182.339 178.608 182.545C178.868 182.749 179.086 182.997 179.261 183.291C179.436 183.582 179.557 183.915 179.623 184.289ZM181.345 182.016L183.504 188.138H183.589L185.748 182.016H186.671L184.001 189.289H183.092L180.421 182.016H181.345ZM193.315 184.289H192.434C192.382 184.035 192.291 183.813 192.161 183.621C192.033 183.429 191.877 183.268 191.692 183.138C191.51 183.006 191.307 182.906 191.085 182.84C190.862 182.774 190.63 182.74 190.389 182.74C189.948 182.74 189.549 182.852 189.192 183.074C188.837 183.297 188.554 183.625 188.343 184.058C188.135 184.491 188.031 185.023 188.031 185.652C188.031 186.282 188.135 186.814 188.343 187.247C188.554 187.68 188.837 188.008 189.192 188.23C189.549 188.453 189.948 188.564 190.389 188.564C190.63 188.564 190.862 188.531 191.085 188.465C191.307 188.399 191.51 188.3 191.692 188.17C191.877 188.038 192.033 187.875 192.161 187.684C192.291 187.489 192.382 187.267 192.434 187.016H193.315C193.248 187.388 193.128 187.72 192.953 188.014C192.777 188.307 192.56 188.557 192.299 188.763C192.039 188.967 191.746 189.122 191.422 189.228C191.1 189.335 190.756 189.388 190.389 189.388C189.768 189.388 189.217 189.237 188.734 188.934C188.251 188.631 187.871 188.2 187.594 187.641C187.317 187.082 187.178 186.419 187.178 185.652C187.178 184.885 187.317 184.222 187.594 183.664C187.871 183.105 188.251 182.674 188.734 182.371C189.217 182.068 189.768 181.917 190.389 181.917C190.756 181.917 191.1 181.97 191.422 182.076C191.746 182.183 192.039 182.339 192.299 182.545C192.56 182.749 192.777 182.997 192.953 183.291C193.128 183.582 193.248 183.915 193.315 184.289Z" fill="white"/>
<path d="M173.716 209.289V207.738L177.34 204.382C177.648 204.083 177.907 203.815 178.116 203.576C178.328 203.338 178.488 203.104 178.598 202.875C178.707 202.643 178.762 202.393 178.762 202.125C178.762 201.826 178.694 201.569 178.558 201.354C178.422 201.135 178.236 200.968 178.001 200.852C177.766 200.733 177.499 200.673 177.201 200.673C176.889 200.673 176.617 200.736 176.385 200.862C176.153 200.988 175.974 201.168 175.848 201.404C175.723 201.639 175.66 201.919 175.66 202.244H173.616C173.616 201.578 173.767 200.999 174.069 200.509C174.37 200.018 174.793 199.639 175.336 199.37C175.88 199.102 176.506 198.968 177.216 198.968C177.945 198.968 178.58 199.097 179.12 199.355C179.663 199.611 180.086 199.965 180.388 200.419C180.689 200.873 180.84 201.394 180.84 201.98C180.84 202.365 180.764 202.744 180.611 203.119C180.462 203.493 180.195 203.909 179.811 204.367C179.426 204.821 178.884 205.366 178.185 206.002L176.699 207.459V207.529H180.974V209.289H173.716ZM186.298 209.428C185.555 209.428 184.894 209.3 184.314 209.045C183.737 208.787 183.281 208.432 182.947 207.981C182.615 207.527 182.445 207.003 182.435 206.41H184.602C184.615 206.659 184.697 206.877 184.846 207.066C184.998 207.252 185.2 207.396 185.452 207.499C185.704 207.602 185.988 207.653 186.302 207.653C186.631 207.653 186.921 207.595 187.173 207.479C187.424 207.363 187.622 207.202 187.764 206.997C187.907 206.791 187.978 206.554 187.978 206.286C187.978 206.014 187.902 205.774 187.749 205.565C187.6 205.353 187.385 205.187 187.103 205.068C186.825 204.948 186.493 204.889 186.109 204.889H185.159V203.308H186.109C186.433 203.308 186.72 203.252 186.969 203.139C187.221 203.026 187.416 202.87 187.555 202.672C187.695 202.469 187.764 202.234 187.764 201.966C187.764 201.71 187.703 201.487 187.58 201.294C187.461 201.099 187.292 200.946 187.073 200.837C186.858 200.728 186.606 200.673 186.317 200.673C186.026 200.673 185.759 200.726 185.517 200.832C185.275 200.935 185.081 201.082 184.935 201.274C184.789 201.467 184.712 201.692 184.702 201.951H182.638C182.648 201.364 182.816 200.847 183.141 200.399C183.465 199.952 183.903 199.602 184.453 199.35C185.007 199.095 185.631 198.968 186.327 198.968C187.03 198.968 187.645 199.095 188.172 199.35C188.699 199.606 189.108 199.95 189.4 200.385C189.695 200.815 189.841 201.299 189.837 201.836C189.841 202.406 189.663 202.882 189.305 203.263C188.951 203.644 188.488 203.886 187.918 203.989V204.069C188.667 204.165 189.237 204.425 189.628 204.849C190.023 205.27 190.218 205.797 190.215 206.43C190.218 207.01 190.051 207.525 189.713 207.976C189.378 208.427 188.916 208.782 188.326 209.04C187.736 209.299 187.06 209.428 186.298 209.428ZM195.755 209.512C194.9 209.509 194.164 209.299 193.547 208.881C192.934 208.463 192.462 207.859 192.13 207.066C191.802 206.274 191.64 205.321 191.643 204.208C191.643 203.097 191.807 202.151 192.135 201.369C192.467 200.587 192.939 199.992 193.552 199.584C194.169 199.173 194.903 198.968 195.755 198.968C196.607 198.968 197.339 199.173 197.952 199.584C198.569 199.995 199.043 200.592 199.374 201.374C199.705 202.153 199.87 203.097 199.866 204.208C199.866 205.325 199.701 206.279 199.369 207.071C199.041 207.864 198.57 208.468 197.957 208.886C197.344 209.304 196.61 209.512 195.755 209.512ZM195.755 207.728C196.338 207.728 196.804 207.434 197.152 206.848C197.5 206.261 197.672 205.381 197.669 204.208C197.669 203.435 197.589 202.792 197.43 202.279C197.274 201.765 197.052 201.379 196.764 201.12C196.479 200.862 196.143 200.733 195.755 200.733C195.175 200.733 194.711 201.023 194.363 201.603C194.015 202.183 193.839 203.051 193.836 204.208C193.836 204.99 193.914 205.643 194.069 206.167C194.228 206.687 194.452 207.078 194.741 207.34C195.029 207.598 195.367 207.728 195.755 207.728Z" fill="white"/>
<g opacity="0.7">
<rect x="305.23" y="182.059" width="36.3209" height="27.4591" rx="4.20321" fill="white" fill-opacity="0.26" stroke="white" stroke-width="0.898396"/>
<path d="M305.362 190.333H315.248C316.533 190.333 317.575 191.375 317.575 192.659V197.166M317.575 209.408V204M317.575 204V197.166M317.575 204H305.362M317.575 197.166H305.362" stroke="white" stroke-width="0.898396"/>
<path d="M341.418 190.333H329.787M329.787 190.333V197.166M329.787 190.333V182.191M329.787 209.408V204M329.787 204V197.166M329.787 204H341.418M329.787 197.166H341.418" stroke="white" stroke-width="0.898396"/>
</g>
<defs>
<filter id="filter0_b_1804_189" x="-22.1752" y="-22.1752" width="408.35" height="278.35" filterUnits="userSpaceOnUse" color-interpolation-filters="sRGB">
<feFlood flood-opacity="0" result="BackgroundImageFix"/>
<feGaussianBlur in="BackgroundImageFix" stdDeviation="11.4545"/>
<feComposite in2="SourceAlpha" operator="in" result="effect1_backgroundBlur_1804_189"/>
<feBlend mode="normal" in="SourceGraphic" in2="effect1_backgroundBlur_1804_189" result="shape"/>
</filter>
<filter id="filter1_f_1804_189" x="45.2627" y="-223.286" width="468.777" height="351.306" filterUnits="userSpaceOnUse" color-interpolation-filters="sRGB">
<feFlood flood-opacity="0" result="BackgroundImageFix"/>
<feBlend mode="normal" in="SourceGraphic" in2="BackgroundImageFix" result="shape"/>
<feGaussianBlur stdDeviation="27.9144" result="effect1_foregroundBlur_1804_189"/>
</filter>
<filter id="filter2_f_1804_189" x="-7.12112" y="-257.536" width="468.777" height="351.306" filterUnits="userSpaceOnUse" color-interpolation-filters="sRGB">
<feFlood flood-opacity="0" result="BackgroundImageFix"/>
<feBlend mode="normal" in="SourceGraphic" in2="BackgroundImageFix" result="shape"/>
<feGaussianBlur stdDeviation="27.9144" result="effect1_foregroundBlur_1804_189"/>
</filter>
<filter id="filter3_di_1804_189" x="19.9418" y="91.3816" width="282.081" height="24.4939" filterUnits="userSpaceOnUse" color-interpolation-filters="sRGB">
<feFlood flood-opacity="0" result="BackgroundImageFix"/>
<feColorMatrix in="SourceAlpha" type="matrix" values="0 0 0 0 0 0 0 0 0 0 0 0 0 0 0 0 0 0 127 0" result="hardAlpha"/>
<feOffset dy="1.28342"/>
<feGaussianBlur stdDeviation="1.60428"/>
<feComposite in2="hardAlpha" operator="out"/>
<feColorMatrix type="matrix" values="0 0 0 0 0.0916667 0 0 0 0 0.0916667 0 0 0 0 0.0916667 0 0 0 0.4 0"/>
<feBlend mode="normal" in2="BackgroundImageFix" result="effect1_dropShadow_1804_189"/>
<feBlend mode="normal" in="SourceGraphic" in2="effect1_dropShadow_1804_189" result="shape"/>
<feColorMatrix in="SourceAlpha" type="matrix" values="0 0 0 0 0 0 0 0 0 0 0 0 0 0 0 0 0 0 127 0" result="hardAlpha"/>
<feOffset dy="2.56684"/>
<feGaussianBlur stdDeviation="1.28342"/>
<feComposite in2="hardAlpha" operator="arithmetic" k2="-1" k3="1"/>
<feColorMatrix type="matrix" values="0 0 0 0 0.683333 0 0 0 0 0.683333 0 0 0 0 0.683333 0 0 0 0.25 0"/>
<feBlend mode="normal" in2="shape" result="effect2_innerShadow_1804_189"/>
</filter>
<filter id="filter4_di_1804_189" x="20.3179" y="151.968" width="91.0255" height="15.5939" filterUnits="userSpaceOnUse" color-interpolation-filters="sRGB">
<feFlood flood-opacity="0" result="BackgroundImageFix"/>
<feColorMatrix in="SourceAlpha" type="matrix" values="0 0 0 0 0 0 0 0 0 0 0 0 0 0 0 0 0 0 127 0" result="hardAlpha"/>
<feOffset dy="2.56684"/>
<feGaussianBlur stdDeviation="1.28342"/>
<feComposite in2="hardAlpha" operator="out"/>
<feColorMatrix type="matrix" values="0 0 0 0 0.0875 0 0 0 0 0.0875 0 0 0 0 0.0875 0 0 0 0.16 0"/>
<feBlend mode="normal" in2="BackgroundImageFix" result="effect1_dropShadow_1804_189"/>
<feBlend mode="normal" in="SourceGraphic" in2="effect1_dropShadow_1804_189" result="shape"/>
<feColorMatrix in="SourceAlpha" type="matrix" values="0 0 0 0 0 0 0 0 0 0 0 0 0 0 0 0 0 0 127 0" result="hardAlpha"/>
<feOffset dy="2.56684"/>
<feGaussianBlur stdDeviation="1.28342"/>
<feComposite in2="hardAlpha" operator="arithmetic" k2="-1" k3="1"/>
<feColorMatrix type="matrix" values="0 0 0 0 0.682353 0 0 0 0 0.682353 0 0 0 0 0.682353 0 0 0 0.25 0"/>
<feBlend mode="normal" in2="shape" result="effect2_innerShadow_1804_189"/>
</filter>
<filter id="filter5_di_1804_189" x="20.1343" y="198.63" width="46.507" height="17.324" filterUnits="userSpaceOnUse" color-interpolation-filters="sRGB">
<feFlood flood-opacity="0" result="BackgroundImageFix"/>
<feColorMatrix in="SourceAlpha" type="matrix" values="0 0 0 0 0 0 0 0 0 0 0 0 0 0 0 0 0 0 127 0" result="hardAlpha"/>
<feOffset dy="2.56684"/>
<feGaussianBlur stdDeviation="1.28342"/>
<feComposite in2="hardAlpha" operator="out"/>
<feColorMatrix type="matrix" values="0 0 0 0 0.0875 0 0 0 0 0.0875 0 0 0 0 0.0875 0 0 0 0.16 0"/>
<feBlend mode="normal" in2="BackgroundImageFix" result="effect1_dropShadow_1804_189"/>
<feBlend mode="normal" in="SourceGraphic" in2="effect1_dropShadow_1804_189" result="shape"/>
<feColorMatrix in="SourceAlpha" type="matrix" values="0 0 0 0 0 0 0 0 0 0 0 0 0 0 0 0 0 0 127 0" result="hardAlpha"/>
<feOffset dy="2.56684"/>
<feGaussianBlur stdDeviation="1.28342"/>
<feComposite in2="hardAlpha" operator="arithmetic" k2="-1" k3="1"/>
<feColorMatrix type="matrix" values="0 0 0 0 0.682353 0 0 0 0 0.682353 0 0 0 0 0.682353 0 0 0 0.25 0"/>
<feBlend mode="normal" in2="shape" result="effect2_innerShadow_1804_189"/>
</filter>
<linearGradient id="paint0_linear_1804_189" x1="2" y1="2" x2="130.405" y2="324.275" gradientUnits="userSpaceOnUse">
<stop stop-color="white" stop-opacity="0.4"/>
<stop offset="1" stop-color="white" stop-opacity="0"/>
</linearGradient>
<radialGradient id="paint1_radial_1804_189" cx="0" cy="0" r="1" gradientUnits="userSpaceOnUse" gradientTransform="translate(2 2) rotate(32.5741) scale(427.2 269.348)">
<stop stop-color="white" stop-opacity="0.7"/>
<stop offset="0.677083" stop-color="#B691FF" stop-opacity="0.4"/>
<stop offset="1" stop-color="white" stop-opacity="0"/>
</radialGradient>
<linearGradient id="paint2_linear_1804_189" x1="351.951" y1="228.167" x2="316.94" y2="84.1868" gradientUnits="userSpaceOnUse">
<stop stop-color="white" stop-opacity="0.32"/>
<stop offset="0.140625" stop-color="#F9FFF5"/>
<stop offset="1" stop-color="white" stop-opacity="0"/>
</linearGradient>
<linearGradient id="paint3_linear_1804_189" x1="357.631" y1="3.74243" x2="323.401" y2="148.648" gradientUnits="userSpaceOnUse">
<stop stop-color="#53555E"/>
<stop offset="1" stop-color="white" stop-opacity="0"/>
</linearGradient>
<linearGradient id="paint4_linear_1804_189" x1="302.529" y1="28.244" x2="302.529" y2="41.7465" gradientUnits="userSpaceOnUse">
<stop stop-color="white"/>
<stop offset="1" stop-color="white" stop-opacity="0.75"/>
</linearGradient>
<clipPath id="clip0_1804_189">
<rect width="45" height="26" fill="white" transform="translate(297 22)"/>
</clipPath>
</defs>
</svg>
